<svg xmlns="http://www.w3.org/2000/svg" style="display: none;">
  <symbol id="icon-paper" viewBox="0 0 24 24">
    <path d="M14 2H6c-1.1 0-1.99.9-1.99 2L4 20c0 1.1.89 2 1.99 2H18c1.1 0 2-.9 2-2V8l-6-6zm2 16H8v-2h8v2zm0-4H8v-2h8v2zm-3-5V3.5L18.5 9H13z"/>
  </symbol>
  <symbol id="icon-slides" viewBox="0 0 24 24">
    <path d="M19 3H5c-1.1 0-2 .9-2 2v14c0 1.1.9 2 2 2h14c1.1 0 2-.9 2-2V5c0-1.1-.9-2-2-2zm-7 14l-5-5 1.41-1.41L12 14.17l3.59-3.58L17 12l-5 5z"/>
  </symbol>
  <symbol id="icon-video" viewBox="0 0 24 24">
    <path d="M17 10.5V7c0-.55-.45-1-1-1H4c-.55 0-1 .45-1 1v10c0 .55.45 1 1 1h12c.55 0 1-.45 1-1v-3.5l4 4v-11l-4 4z"/>
  </symbol>
  <symbol id="icon-github" viewBox="0 0 24 24">
    <path d="M12 2C6.48 2 2 6.48 2 12c0 4.42 2.87 8.17 6.84 9.5.5.08.66-.23.66-.5v-1.69c-2.77.6-3.36-1.34-3.36-1.34-.46-1.16-1.11-1.47-1.11-1.47-.91-.62.07-.6.07-.6 1 .07 1.53 1.03 1.53 1.03.89 1.52 2.32 1.08 2.89.83.09-.65.33-1.08.6-1.33-2.22-.25-4.55-1.11-4.55-4.94 0-1.09.39-1.98 1.03-2.67-.1-.25-.45-1.27.1-2.64 0 0 .84-.27 2.75 1.02.8-.22 1.65-.33 2.5-.33.85 0 1.7.11 2.5.33 1.91-1.29 2.75-1.02 2.75-1.02.55 1.37.2 2.39.1 2.64.64.69 1.03 1.58 1.03 2.67 0 3.84-2.34 4.68-4.57 4.93.36.31.68.92.68 1.85V21c0 .27.16.59.67.5C19.14 20.16 22 16.42 22 12c0-5.52-4.48-10-10-10z"/>
  </symbol>
  <symbol id="icon-arxiv" viewBox="0 0 24 24">
    <path d="M12 2L4.5 20.29l.71.71L12 18l6.79 3 .71-.71z"/>
  </symbol>
  <symbol id="icon-talk" viewBox="0 0 24 24">
    <path d="M20 2H4c-1.1 0-1.99.9-1.99 2L2 22l4-4h14c1.1 0 2-.9 2-2V4c0-1.1-.9-2-2-2zm-2 12H6v-2h12v2zm0-3H6V9h12v2zm0-3H6V6h12v2z"/>
  </symbol>
  <symbol id="icon-twitter" viewBox="0 0 24 24">
    <path d="M22.46 6c-.77.35-1.6.58-2.46.69.88-.53 1.56-1.37 1.88-2.38-.83.5-1.75.85-2.72 1.05C18.39 4.6 17.28 4 16 4c-2.35 0-4.27 1.92-4.27 4.29 0 .34.04.67.11.98C8.28 9.09 5.11 7.38 3 4.79c-.37.63-.58 1.37-.58 2.15 0 1.48.75 2.78 1.89 3.54-.7-.02-1.36-.21-1.94-.53v.05c0 2.06 1.47 3.78 3.41 4.17-.36.1-.73.15-1.11.15-.27 0-.53-.03-.79-.08.54 1.68 2.11 2.9 3.96 2.94-1.45 1.14-3.28 1.82-5.27 1.82-.34 0-.68-.02-1.02-.06C3.18 20.29 5.41 21 7.78 21 15.63 21 19.91 14.5 19.91 8.86v-.55c.83-.6 1.55-1.35 2.12-2.21z"/>
  </symbol>
  <symbol id="icon-linkedin" viewBox="0 0 24 24">
    <path d="M19 3a2 2 0 0 1 2 2v14a2 2 0 0 1-2 2H5a2 2 0 0 1-2-2V5a2 2 0 0 1 2-2h14m-.5 15.5v-5.3a2.7 2.7 0 0 0-2.7-2.7c-1.2 0-2 .7-2.3 1.2v-1h-2.8v7.8h2.8v-4.1a1.4 1.4 0 0 1 1.4-1.4 1.4 1.4 0 0 1 1.4 1.4v4.1h2.2M7 10.1a1.4 1.4 0 0 0 1.4-1.4A1.4 1.4 0 0 0 7 7.3a1.4 1.4 0 0 0-1.4 1.4 1.4 1.4 0 0 0 1.4 1.4m1.1 7.9V10.2H5.9v7.8h2.2z"/>
  </symbol>
  <symbol id="icon-link" viewBox="0 0 24 24">
    <path d="M3.9 12c0-1.71 1.39-3.1 3.1-3.1h4V7H7c-2.76 0-5 2.24-5 5s2.24 5 5 5h4v-1.9H7c-1.71 0-3.1-1.39-3.1-3.1zM8 13h8v-2H8v2zm9-6h-4v1.9h4c1.71 0 3.1 1.39 3.1 3.1s-1.39 3.1-3.1 3.1h-4V17h4c2.76 0 5-2.24 5-5s-2.24-5-5-5z"/>
  </symbol>
  <symbol id="icon-google-scholar" viewBox="0 0 24 24">
    <path d="M12 24a7 7 0 1 1 0-14 7 7 0 0 1 0 14zm0-24L0 9.5l4.838 3.94A8 8 0 0 1 12 9a8 8 0 0 1 7.162 4.44L24 9.5z"/>
  </symbol>
  <symbol id="icon-orcid" viewBox="0 0 24 24">
    <path d="M12 0C5.372 0 0 5.372 0 12s5.372 12 12 12 12-5.372 12-12S18.628 0 12 0zM7.369 4.378c.541 0 .98.439.98.98s-.439.98-.98.98-.98-.439-.98-.98.439-.98.98-.98zm-.854 2.524h1.708v10.041H6.515V6.902zm6.058 0c1.393 0 2.579.446 3.558 1.338 1.012.887 1.518 2.111 1.518 3.67s-.506 2.783-1.518 3.67c-.979.892-2.165 1.338-3.558 1.338-1.091 0-2.018-.255-2.782-.765V6.902h1.708v1.344c.411-.449 1.038-.894 2.074-.894zm-.228 1.622c-.511 0-.927.129-1.248.388-.321.259-.482.599-.482 1.021v4.21c0 .422.161.762.482 1.021.321.259.737.388 1.248.388.511 0 .927-.129 1.248-.388.321-.259.482-.599.482-1.021v-4.21c0-.422-.161-.762-.482-1.021-.321-.259-.737-.388-1.248-.388z"/>
  </symbol>
  <symbol id="icon-dblp" viewBox="0 0 24 24">
    <path d="M15.562 4.562c-2.66 0-4.812 2.152-4.812 4.812v6.25c0 2.66 2.152 4.812 4.812 4.812s4.812-2.152 4.812-4.812v-6.25c0-2.66-2.152-4.812-4.812-4.812zm-11.124 0c-2.66 0-4.812 2.152-4.812 4.812v6.25c0 2.66 2.152 4.812 4.812 4.812s4.812-2.152 4.812-4.812v-6.25c0-2.66-2.152-4.812-4.812-4.812z"/>
  </symbol>
</svg>
