<svg xmlns="http://www.w3.org/2000/svg" style="display: none;">
  <symbol id="icon-paper" viewBox="0 0 24 24">
    <path d="M14 2H6c-1.1 0-1.99.9-1.99 2L4 20c0 1.1.89 2 1.99 2H18c1.1 0 2-.9 2-2V8l-6-6zm2 16H8v-2h8v2zm0-4H8v-2h8v2zm-3-5V3.5L18.5 9H13z"/>
  </symbol>
  <symbol id="icon-slides" viewBox="0 0 24 24">
    <path d="M19 3H5c-1.1 0-2 .9-2 2v14c0 1.1.9 2 2 2h14c1.1 0 2-.9 2-2V5c0-1.1-.9-2-2-2zm-7 14l-5-5 1.41-1.41L12 14.17l3.59-3.58L17 12l-5 5z"/>
  </symbol>
  <symbol id="icon-video" viewBox="0 0 24 24">
    <path d="M17 10.5V7c0-.55-.45-1-1-1H4c-.55 0-1 .45-1 1v10c0 .55.45 1 1 1h12c.55 0 1-.45 1-1v-3.5l4 4v-11l-4 4z"/>
  </symbol>
  <symbol id="icon-github" viewBox="0 0 24 24">
    <path d="M12 2C6.48 2 2 6.48 2 12c0 4.42 2.87 8.17 6.84 9.5.5.08.66-.23.66-.5v-1.69c-2.77.6-3.36-1.34-3.36-1.34-.46-1.16-1.11-1.47-1.11-1.47-.91-.62.07-.6.07-.6 1 .07 1.53 1.03 1.53 1.03.89 1.52 2.32 1.08 2.89.83.09-.65.33-1.08.6-1.33-2.22-.25-4.55-1.11-4.55-4.94 0-1.09.39-1.98 1.03-2.67-.1-.25-.45-1.27.1-2.64 0 0 .84-.27 2.75 1.02.8-.22 1.65-.33 2.5-.33.85 0 1.7.11 2.5.33 1.91-1.29 2.75-1.02 2.75-1.02.55 1.37.2 2.39.1 2.64.64.69 1.03 1.58 1.03 2.67 0 3.84-2.34 4.68-4.57 4.93.36.31.68.92.68 1.85V21c0 .27.16.59.67.5C19.14 20.16 22 16.42 22 12c0-5.52-4.48-10-10-10z"/>
  </symbol>
  <symbol id="icon-arxiv" viewBox="0 0 24 24">
    <path d="M12 2L4.5 20.29l.71.71L12 18l6.79 3 .71-.71z"/>
  </symbol>
  <symbol id="icon-talk" viewBox="0 0 24 24">
    <path d="M20 2H4c-1.1 0-1.99.9-1.99 2L2 22l4-4h14c1.1 0 2-.9 2-2V4c0-1.1-.9-2-2-2zm-2 12H6v-2h12v2zm0-3H6V9h12v2zm0-3H6V6h12v2z"/>
  </symbol>
</svg>
